/* XPM */
static char *_e7e5f6c71a04612ad1abfdd32fecd17YUAo0TSyQuU3LA9N[] = {
/* columns rows colors chars-per-pixel */
"64 64 250 2 ",
"   c #020202",
".  c #0B0102",
"X  c #03030A",
"o  c #0C0C0C",
"O  c #060806",
"+  c #110201",
"@  c #130D03",
"#  c #0A1108",
"$  c #131209",
"%  c #040111",
"&  c #121213",
"*  c #141519",
"=  c #0E1118",
"-  c #2A150E",
";  c #382B19",
":  c #383413",
">  c #102732",
",  c #332C28",
"<  c #383737",
"1  c #2F2E29",
"2  c #1C1C24",
"3  c #661818",
"4  c #46311A",
"5  c #432F28",
"6  c #691B15",
"7  c #3E403F",
"8  c #594619",
"9  c #67531D",
"0  c #594532",
"q  c #6A5329",
"w  c #6D5229",
"e  c #7E6334",
"r  c #2B3841",
"t  c #3F4845",
"y  c gray35",
"u  c #474546",
"i  c #6A6D56",
"p  c #666766",
"a  c #727272",
"s  c #605A5E",
"d  c #86231C",
"f  c #B22A19",
"g  c #8D2624",
"h  c #B72B2A",
"j  c #BA2E32",
"k  c #8F1416",
"l  c #CF3630",
"z  c #ED2E2D",
"x  c #E92926",
"c  c #EB322C",
"v  c #E8372C",
"b  c #F3342C",
"n  c #FA342A",
"m  c #EA2B36",
"M  c #F42C33",
"N  c #F82D3A",
"B  c #EC3534",
"V  c #E53B34",
"C  c #EB3A35",
"Z  c #ED363B",
"A  c #E63C3A",
"S  c #ED3A39",
"D  c #E53537",
"F  c #F33434",
"G  c #FD3433",
"H  c #F23A36",
"J  c #F2353B",
"K  c #F23A3B",
"L  c #FC3839",
"P  c #F52828",
"I  c #F12A1F",
"U  c #8F783C",
"Y  c #967B3C",
"T  c #D94237",
"R  c #DF422F",
"E  c #E74338",
"W  c #F7423B",
"Q  c #EA563B",
"!  c #ED4C31",
"~  c #DF3E46",
"^  c #E83B45",
"/  c #F33443",
"(  c #FA3942",
")  c #E23B57",
"_  c #BB5557",
"`  c #957F43",
"'  c #8E7B45",
"]  c #BC696F",
"[  c #CE4D51",
"{  c #EA4546",
"}  c #F24542",
"|  c #F84647",
" . c #EC5B45",
".. c #F65746",
"X. c #F2585A",
"o. c #EE545A",
"O. c #F06F4F",
"+. c #EB5D63",
"@. c #F35B62",
"#. c #F46465",
"$. c #F6626B",
"%. c #F2696D",
"&. c #B3944F",
"*. c #AC9C6C",
"=. c #F49A5B",
"-. c #CAA84D",
";. c #EDBE5C",
":. c #FDB257",
">. c #F0887D",
",. c #D2BE75",
"<. c #F8BD66",
"1. c #EFBA6C",
"2. c #C39059",
"3. c #FDC554",
"4. c #FDC55C",
"5. c #FDCC5D",
"6. c #F6C958",
"7. c #FCD25B",
"8. c #F6C54F",
"9. c #D2CB72",
"0. c #EBC865",
"q. c #F5C363",
"w. c #FDC464",
"e. c #F5CA64",
"r. c #FDCB64",
"t. c #FCC56B",
"y. c #F4CB6C",
"u. c #FECC6B",
"i. c #F4C36C",
"p. c #FCD364",
"a. c #FED36B",
"s. c #FDDB6C",
"d. c #F6D466",
"f. c #EBC876",
"g. c #FEC172",
"h. c #FECB72",
"j. c #F5C876",
"k. c #FED374",
"l. c #FFD37A",
"z. c #FAD776",
"x. c #FAE575",
"c. c #FFE16E",
"v. c #6C799B",
"b. c #7A7494",
"n. c #667AA8",
"m. c #5D7EC5",
"M. c #897283",
"N. c #4689BA",
"B. c #5684BB",
"V. c #4F88AB",
"C. c #73B2A8",
"Z. c #6089BD",
"A. c #1E9CDE",
"S. c #1294DF",
"D. c #0C91DC",
"F. c #3D8EC5",
"G. c #269CCD",
"H. c #229DDD",
"J. c #2B9ADA",
"K. c #289AD7",
"L. c #3899DA",
"P. c #378DDA",
"I. c #09A6DB",
"U. c #1BA2DB",
"Y. c #17A3D9",
"T. c #26A4D9",
"R. c #33A3D7",
"E. c #0698E8",
"W. c #149CE5",
"Q. c #1D9DE2",
"!. c #169BEA",
"~. c #1C9DEB",
"^. c #1696E6",
"/. c #089BF3",
"(. c #1C9CF6",
"). c #0E8CE1",
"_. c #229DE4",
"`. c #259AE8",
"'. c #369BE6",
"]. c #269AF4",
"[. c #0BA6E7",
"{. c #1EA0E3",
"}. c #14A1EA",
"|. c #19A3E9",
" X c #15A4F3",
".X c #0AABF8",
"XX c #2DA5E5",
"oX c #2AA4E9",
"OX c #34A3E4",
"+X c #3CB3EB",
"@X c #4A89C4",
"#X c #47A5D6",
"$X c #4CAED0",
"%X c #47B7E6",
"&X c #52B0EE",
"*X c #75B9EC",
"=X c #77C7EB",
"-X c gray51",
";X c #9A999B",
":X c #A4B295",
">X c #93B8A4",
",X c #ABB2B2",
"<X c #81B09C",
"1X c #ED8986",
"2X c #F88988",
"3X c #F28E8C",
"4X c #C3BF80",
"5X c #EAB0A3",
"6X c #F4AE93",
"7X c #BDCCA7",
"8X c #CEC486",
"9X c #FAD685",
"0X c #F7D391",
"qX c #FCDDAA",
"wX c #FFE5B7",
"eX c #CFC8BE",
"rX c #89CCF6",
"tX c #AFD7E6",
"yX c #C7CAC8",
"uX c #D9D3CC",
"iX c #FECDD3",
"pX c #F8DAD6",
"aX c #FDEAC6",
"sX c #FCF1D5",
"dX c #CBE9F1",
"fX c #ECECED",
"gX c #E6EAE7",
"hX c #EDF2ED",
"jX c #FDFDED",
"kX c #FBF5E7",
"lX c #EEFAFC",
"zX c #EBF9F9",
"xX c #F5F4F4",
"cX c #FCF3F5",
"vX c #F4FEF4",
"bX c #FDFDF5",
"nX c #F5F5FB",
"mX c #FEF6FE",
"MX c #F5FEFD",
"NX c #FFFFFB",
"BX c #FEFEF9",
"VX c #FEFAFE",
"CX c #FAFFFE",
"ZX c #FFFDFF",
"AX c #FEFEFE",
"SX c white",
"DX c #FEFEFF",
"FX c #FDFEFD",
"GX c #FEFEFE",
"HX c #FAE9EE",
/* pixels */
"y -XSXSXSXSXSXSXSXSXSXSXSXSXSXSXSXSXSXSXSXSXSXSXSXSXSXSXSXSXSXSXSXSXSXSXSXSXSXSXSXSXSXSXSXSXSXSXFXFXFXFXCXSXSXSXCXFXBXFXbXjXM.s ",
"-XSXnXSXSXBXSXSXSXSXSXSXSXSXSXSXSXSXSXSXSXSXSXSXSXSXSXSXSXSXSXSXSXSXSXSXSXSXSXSXSXSXSXSXSXSXSXSXBXBXBXBXBXBXBXBXbXBXbXFXSXxXHXC.",
"xXSXBXSXnXSXBXSXSXSXSXSXSXSXSXSXSXSXSXSXSXSXSXSXSXSXSXSXSXSXSXSXSXSXSXSXSXSXSXSXSXSXSXSXSXSXSXSXFXSXSXSXSXFXFXSXFXFXFXSXmXBXcXjX",
"SXSXSXxXSXSXnXSXSXSXSXSXSXSXSXSXSXSXSXSXSXSXSXSXSXSXSXSXSXSXSXSXSXSXSXSXSXSXSXSXSXSXSXSXSXSXSXSXFXCXBXSXSXFXFXSXFXFXxXSXFXFXxXbX",
"nXSXSXSXnXBXSXSXSXSXSXSXSXSXSXSXSXSXSXSXSXSXSXSXSXSXSXSXSXSXSXSXSXSXSXSXSXSXSXSXSXSXSXSXSXSXSXSXSXBXbXBXBXSXSXSXFXSXBXMXSXFXFXFX",
"SXnXSXSXSXSXnXSXSXSXSXSXSXSXSXSXSXSXSXSXSXSXSXSXSXSXSXSXSXSXSXSXSXSXSXSXSXSXSXSXSXSXSXSXSXSXSXSXSXxXbXbXjXbXbXBXcXjXCXbXBXSXHXFX",
"BXSXSXBXSXnXSXBXSXSXSXSXSXSXSXSXSXSXSXSXSXSXSXSXFXFXFXFXFXFXFXFXFXFXFXFXFXFXFXFXSXSXSXSXSXSXSXSX9Xh.h.h.h.h.u.h.y.0XjXSXCXSXBXnX",
"SXSXSXSXSXSXSXSXSXSXSXSXSXSXSXSXSXSXSXSXSXSXSXSXFXFXFXFXFXFXFXFXFXFXFXFXFXFXFXFXSXSXSXSXSXSXSXSXl.u.i.r.r.r.r.w.6.f.cXFXFXSXjXSX",
"SXSXSXSXSXSXSXSXSXSXSXSXSXSXSXSXFXMXnXBXBXxXSXFXMXmXbXBXFXSXSXbXBXBXSXSXCXSXBXBXSXCXMXFXFXFXFXCX0X:.u.y.u.t.4.k.r.h.bXBXSXSXSXFX",
"SXSXSXSXSXSXSXSXSXSXSXSXSXSXSXSXmXCXSXSXSXFXFXFXmX6X+.#.%.%.$.+.$.#.X.+.#.$.#.#.X.1XjXSXMXBXbXBX9X3.p.e.w.r.r.e.y.h.xXBXSXSXBXFX",
"SXSXSXSXSXSXSXSXSXSXSXSXSXSXSXSXmXCXMXFXFXCXFXMXbX%.x I x x c v B B F B c x z z x +.bXFXmXlXmXMX9X5.u.y.r.u.k.u.u.h.BXCXSXFXBXBX",
"SXSXSXSXSXSXSXSXSXSXSXSXSXSXSXSXBXCXSXmXmXMXcXjXSX3Xc W E S K A J Z Z K Z S S } b @.BXmXFXMXBXMX9Xa.h.u.p.q.q.4.r.h.SXSXCXFXBXBX",
"SXSXSXSXSXSXSXSXSXSXSXSXSXSXSXSXCXMXSXFXSXCX5X%.3X+.D ^ V S Z H S C D S S E V V b | 3X2X2X2X2X1X%.O.O.=.u.t.t.u.4.u.bXBXSXFXBXFX",
"SXSXSXSXSXSXSXSXSXSXSXSXSXSXSXSXSXSXBXSXFXBX@.x x F F F B C v H C S S S C C C C A A V x x I c M C v x O.a.j.e.d.r.u.bXBXSXFXCXSX",
"SXSXSXSXSXSXSXSXSXSXSXSXSXSXSXSXFXSXSXCXmXbX%.( L | H K K | L L M M J x z J ( L / ^ C b A K D N G G b O.y.h.u.w.y.j.SXSXFXFXBXSX",
"SXSXSXSXSXSXSXSXSXSXSXSXSXSXSXSXSXbXBXSXmXMX[ f j h h l h h h j  . . . . . .T h h l Q ..X.X.+.O.[ _ [ 2.9.,.8X,.9.8XnXFXFXFXBXFX",
"SXSXSXSXSXSXSXSXSXSXSXSXSXSXSXSXvXFXvXSXFXMX1 O O   %   .   X o i.a.4.h.u.k.Y   O : s.q.9XFXBXvX%X}.{.(.Q.[.H.W.^.XXlXFXFXBXSXBX",
"SXSXSXSXSXSXSXSXSXSXSXSXSXSXSXSXBXFXbXSXmXFX< X   X           # 1.7.4.h.e.s.Y     ; r.y.e.jXnXFX+XE.`.Q.H.Q.`._.Q.XXnXFXFXnXSXSX",
"SXSXSXSXSXSXSXSXSXSXSXSXSXSXSXSXFXmXbXxXfXnX0 . *   O #   @ . - 0.5.r.h.<.a.Y .   ; 7.t.u.kXBXCX*XJ.OXG.Y.'.T.Q.Q.XXnXFXBXBXSXBX",
"SXSXSXSXSXSXSXSXSXSXSXSXSXSXSXSXbXFXhX2 * & &.f.1.9   X 5 i.q.;.e.5.r.t.r.s.U     ; s.g.7.j.y.e.1.9.z.>X/.Q.!.J.^.XXlXFXCXBXSXSX",
"SXSXSXSXSXSXSXSXSXSXSXSXSXSXSXSXnXFXhX*     -.7.s.9 O X ; d.<.l.i.r.a.u.6.a.' X O ; e.g.4.a.t.u.u.u.3.:XS.R.}.}.Q.XXnXFXCXBXSXSX",
"SXSXSXSXSXSXSXSXSXSXSXSXSXSXSXSXSXBXfX$     -.h.a.9   X 4 z.u.r.h.r.4.e.p.s.U     4 z.u.k.r.r.8.7.u.4.>X/.oX`.A.Q.XXlXFXCXSXSXSX",
"SXSXSXSXSXSXSXSXSXSXSXSXSXSXSXSXSXbXfXo O X &.h.9Xq   O   4 4 4 ;.w.q.r.e.u.i.&.-.&.; ; ; i.g.h.y.f.4.y.8X8X:XK.Q.XXlXSXCXSXSXSX",
"SXSXSXSXSXSXSXSXSXSXSXSXSXSXSXSXMXbXgX& X   -.5.a.9   O X   . @ ;.u.u.k.t.w.r.e.y.-.    # ;.h.6.4.e.r.0.0.7.9.~.Q.XXnXFXCXBXSXFX",
"SXSXSXSXSXSXSXSXSXSXSXSXBXSXSXSXSXbXfX= X . ,.z.x.q O         @ <.y.u.u.r.u.r.s.c.*..   @ 9.s.k.s.z.c.p.z.c.7X^.E.G.zXCXbXbXvXSX",
"SXSXSXSXSXSXSXSXSXFXFXFXFXSXBXSXSXBXfX&     4 9 q e Y ` ' ' ' Y q.k.u.<.;.k.&.8 w 8   . @ 9 w w w 0 q q q 8 i tXrXtXSXbXCXSXMXFX",
"SXSXSXSXSXSXSXSXSXSXSXSXSXFXSXSXFXSXgX$       o   &.x.a.l.k.k.a.r.4.w.a.7.s.&.  O   O   .       O O     O O , BXSXBXbXBXCXFXCXFX",
"SXSXSXSXSXSXSXSXSXSXSXSXSXSXSXSXFXSXfX&     X %   Y p.r.u.4.6.e.u.r.r.h.6.d.' X O       % . X     . +   X   < CXbXSXnXSXFXFXBXbX",
"SXSXSXSXSXSXSXSXFXFXFXFXSXSXSXSXvXSXfXu , < 5 7 1 &.h.w.q.u.a.y.h.u.q.g.t.k.` 4 ; ; ; ; ; , ; : > > > > < , p FXMXMXMXSXFXBXFXnX",
"SXSXSXSXSXSXSXSXFXSXSXSXSXSXSXSXbXxXSXSXSXSXcXFXMXqXw.5.u.t.w.r.t.7.4.u.t.r.6.u.u.h.k.a.7.u.a.r.$XU.U.=XMXSXMXbXFXmXSXBXmXSXFXSX",
"SXSXSXSXSXSXSXSXFXSXSXFXCXCXCXCXSXSXSXnXMXFXFXxXMXqX4.r.y.w.r.p.r.r.e.e.a.r.5.7.a.u.5.4.7.u.r.p.#X^.E.=XFXnXMXBXFXmXSXBXSXMXFXmX",
"SXSXSXSXSXSXSXSXFXSXFXFXnXnXnXzXnXnXxXMXMXzXzXnXzXqX0.0.f.r.w.<.i.j.j.f.j.1.i.f.0.i.w.t.5.6Xi.0.$XR.A.rXFXjXnXMXvXFXMXSXSXvXBXBX",
"FXSXCXSXBXbXBXSXFXSXBXmXrX XR.OXoXoXoXoXoXoXoXoXR.T.R.].@XW E { L.T.L.oXJ.'.R.L.T.@XL | { L.T.L.dXFXzXvXFXFXmXBXSXxXSXSXnXSXSXSX",
"BXSXFXmXSXFXFXSXMXvXvXjX=XE.T.!.A.A.A.Q.H.A.A.A.`.}.Y.[.N.J N T `.|._.~.U.W.[.{.I.F.b Z T P.~./.dXMXMXMXSXSXFXxXxXSXSXSXSXBXnXSX",
"BXSXFXFXFXFXSXSXmXFXSXSX*X^.G._.Q._.{.Q.Q.Q.A.Q.~.~.Q.Y.V.L N E A.}.K. X|.{.Q.L.(.@Xn H { A.|.^.dXFXMXSXSXnXSXMXSXSXSXSXSXSXSXSX",
"CXSXSXBXSXBXbXxXSX*X#X&XOX!.oX XoXQ.Q.Q.oX{.oX{.T.|.`.|.H.Z.@XB.[ _ _ N._.U.}.W.{.K.V.@XV._ [ _ pXFXxXSXSXSXyX< 1 u fXSXBXnXSXSX",
"FXFXBXbXBXMXMXFXjX+XE. X}.K.J.~.Q.Q.Q.Q.Q.Q.Q.Q.U.|.`.J.}.U.[.K.Z c G N.}.H.J.J.`.`.!.].U.Z F M pXMXSXSXnXBXyX    o xXSXSXSXSXBX",
"FXFXFXBXCXCXFXFXbX&XE.[./.`._.Q.Q._._._._._._._.A.Q.].Q.Q.H.}.J.) Z ( @X.X X|..X XI.[..X'.^ A v pXmXmXSXCXSXyX    & fXBXSXnXSXSX",
"FXBXFXFXCXBXaXwXsX,XC.C.#X}.T.U.A.A.A.Q.Q.Q.Q.A.}._.].I.Q._.H.J.E v C M.v.b.v.n.b.v.v.v.b.R S N iXSXSXmXzXBXyX    * fXSXSXSXSXSX",
"FXmXFXFXBXsX9X8.5.3.u.7.<X/.'._.{.A.oXQ.Q.Q.T.A.H.K.`.Y.`.`._.J.{ J b N H n n G n G G M G A H A iXMXmXMXCXBXyX    & hXnXSXSXSXSX",
"vXFXSXBXSXFXd.r.k.y.i.s.C./.Q.^.^.I.Q.W.^.^.oX^. XH.Q.~.{.].[.H.A V A D A A Z J Z C V V K N M B iXSXbXFXmXCXyX    & fXSXSXSXSXSX",
"FXFXCXbXFXmXy.<.4.r.5.w.>XR.$X$X&X#X&X&X%X%XN.@XB.G.Q.`.Y.m.@XB.{ V D ^ K C E  . . .K Z A  .Q Q 5XpXpXuXyXuX;X    & fXSXSXSXSXSX",
"FXmXCXbXbXbXl.h.r.a.e.w.h.a.4.9XSXSXSXxXBXbX#.Z G v.}.`.V.G A C / L H K F v O.k.p.=.v F ! <.u.p...m N g     X O   & fXSXSXSXSXSX",
"BXFXCXSXbXkXr.6.y.h.r.t.j.8.3.9XCXbXSXBXvXvX+.v G v..X|.F.C A F A C B E K b O.a.p.<.K / E j.u.r.Q Z L d     .     o fXSXnXSXSXSX",
"bXFXMXFXBXkX0X9Xu.t.r.6.7.5.j.0XzXkXgXSXmXBX$.M G b.Q.A.n.E H H C K b A D Z O.t.w.=.D B n <.<.t.Q J ( g       .   & fXSXSXSXSXBX",
"SXFXCXSXBXSXkXkXmX0Xw.u.aXMXMXeXo + > gXCXMX+.B V { A E ) B ^ G T C v C { / C R H } / } c Q E H E ^ W d .         & fXSXSXSXSXSX",
"SXFXBXFXBXCXFXFXSX9X6.6.wXMXSXyX    $ HXFXBX+.v S A S Z S D ^ E J F S C K J S A H C B C F B B H B J W d .         o fXSXSXSXSXSX",
"BXmXSXFXBXBXBXxXCXl.3.4.aXMXBXyXX . = fXCXSX$.M H B / L R H B F J S C E b H K Z A C S K Z Z S E C J L d   .       & fXSXSXSXSXSX",
"SXSXSXSXSXSXSXSXbXbXgXjX*.2 u 1     . < 5 r T C D S K S Z S C S S S C D C S S C E v H F S / C J L V ( d           o fXSXSXFXSXFX",
"SXSXSXSXSXSXSXSXcXbXSXBXy X   X   O       % j G D H S S C S K C K J K S J K Z Z J J K H E C A K A R | d O X o .   & xXSXSXSXSXFX",
"SXSXSXSXSXSXSXSXSXmXxXBXp     X .         O h L B C S C S S S S C S W S S S S Z ^ K v x c P x z M b N k .         & gXSXFXFXSXSX",
"SXSXSXSXSXSXSXSXFX,X;X;Xu   X         3 6 3 h H C C K C F S C C S B B S C D C C B { 1X1X3X2X2X2X3X3X2X] p p p p p a xXSXFXFXFXFX",
"SXSXSXSXSXSXSXSXCX<   O         X   - ~ ( | K { S S S S S C Z D S S S S S S S K J $.bXSXMXCXmXCXbXvXbXbXzXSXFXFXSXnXSXnXFXFXSXSX",
"SXSXSXSXSXSXSXSXSX<   X         X     V G M J S C Z B S C Z C S c b z F z z B b x o.bXFXFXCXmXzXFXBXSXCXFXFXxXzXxXSXxXSXFXFXFXSX",
"SXSXSXSXSXSXSXSXBX7     1 < < 1 , < t A A v B K K S B K K Z C W +.#.#.$.#.#.#.$.X.2XbXBXBXvXxXBXFXSXSXSXFXSXCXSXSXSXSXSXBXnXmXSX",
"SXSXSXSXSXSXSXSXCX<   X ;XFXSXSXFXbXnX| Z H D H S C S C C S K K xXBXBXSXSXBXSXSXSXCXlXmXSXBXSXFXnXBXBXBXFXMXFXFXSXxXSXnXSXSXSXSX",
"SXnXSXSXBXSXSXnXSX<     ;XSXxXSXMXSXkX^ z B A C C D B Z B D C } BXFXFXFXFXSXSXSXSXSXSXSXSXSXSXSXSXSXSXSXSXSXSXSXSXSXSXSXSXSXSXSX",
"BXSXSXnXSXnXSXSXFXu   O ;XSXSXSXSXcXsX+.{ | { ( } } } } W { } | mXFXFXFXFXFXSXSXSXSXSXSXSXSXSXSXSXSXSXSXSXSXSXSXSXSXnXSXBXSXSXFX",
"SXBXSXSXSXSXxXSXSXfXgXfXnXSXnXSXmXFXMXHXfXcXHXcXcXcXcXcXxXxXcXcXmXSXFXFXFXSXSXSXSXSXSXSXSXSXSXSXSXSXSXSXSXSXSXSXSXxXSXSXSXSXxXSX",
"nXSXSXSXnXSXSXSXFXSXSXSXSXBXSXSXBXBXMXmXSXFXSXSXSXBXBXSXSXBXBXFXBXSXFXFXSXSXSXSXSXSXSXSXSXSXSXSXSXSXSXSXSXSXSXSXSXSXSXxXSXSXSXnX",
"SXSXSXnXSXSXnXSXSXSXBXnXSXSXSXSXSXBXBXFXMXmXCXMXSXCXCXSXFXFXFXFXFXFXFXSXSXFXSXSXSXSXSXSXSXSXSXSXSXSXSXSXSXSXSXSXSXxXSXSXxXSXSXSX",
"xXSXBXSXxXSXSXBXBXSXSXSXSXSXnXxXMXMXFXFXSXFXCXMXSXBXBXSXFXFXFXFXSXFXFXSXSXFXFXSXSXSXSXSXSXSXSXSXSXSXSXSXSXSXSXSXSXSXSXBXSXSXSXxX",
"-XSXnXSXSXnXSXSXSXSXSXSXSXSXSXSXBXBXBXBXbXbXbXbXSXSXSXSXFXFXFXFXSXFXFXSXSXSXFXSXSXSXSXSXSXSXSXSXSXSXSXSXSXSXSXSXSXSXnXSXSXnXSX-X",
"y -XSXBXSXSXSXSXSXSXnXSXnXSXBXSXmXMXFXCXCXSXMXmXCXSXSXCXFXFXFXFXSXSXFXSXSXSXSXSXSXSXSXSXSXSXSXSXSXSXSXSXSXSXSXSXSXSXSXSXSXSX-Xy "
};
